<?xml version="1.0" encoding="UTF-8" standalone="no"?>
<svg
   version="1.1"
   width="554.11951"
   height="567.90381"
   style="clip-rule:evenodd;fill-rule:evenodd;image-rendering:optimizeQuality;shape-rendering:geometricPrecision;text-rendering:geometricPrecision"
   id="svg52"
   xmlns="http://www.w3.org/2000/svg"
   xmlns:svg="http://www.w3.org/2000/svg">
  <defs
     id="defs52" />
  <g
     id="g2"
     transform="translate(-234.38074,-356.59646)">
    <path
       style="opacity:1"
       fill="#d36231"
       d="m 659.5,392.5 c 2.652,5.974 5.319,11.974 8,18 2.548,8.349 2.548,16.682 0,25 -2.333,2.667 -4.667,2.667 -7,0 -2.196,-7.393 -5.696,-14.06 -10.5,-20 -1.777,-2.29 -3.944,-3.957 -6.5,-5 -14.139,-12.756 -29.472,-14.256 -46,-4.5 -1.541,1.371 -2.875,2.871 -4,4.5 -2.581,2.82 -4.414,6.154 -5.5,10 -1.412,12.272 1.255,23.605 8,34 30.243,44.055 48.243,92.722 54,146 -1.125,5.263 -3.958,9.263 -8.5,12 0.237,-3.773 -0.263,-7.44 -1.5,-11 -7.055,-15.721 -18.221,-27.555 -33.5,-35.5 -38.807,-19.45 -79.807,-26.45 -123,-21 -29.831,3.272 -56.831,13.605 -81,31 -11.672,9.558 -19.672,21.391 -24,35.5 -3.336,-4.305 -5.003,-9.305 -5,-15 12.989,-71.311 43.989,-133.311 93,-186 6.566,-5.778 12.9,-11.778 19,-18 14.588,-11.375 30.588,-20.541 48,-27.5 30.271,-10.861 60.605,-11.194 91,-1 14.058,6.678 25.725,16.178 35,28.5 z"
       id="path2" />
  </g>
  <g
     id="g3"
     transform="translate(-234.38074,-356.59646)">
    <path
       style="opacity:1"
       fill="#f8da9f"
       d="m 485.5,392.5 c -6.1,6.222 -12.434,12.222 -19,18 -44.001,-0.167 -88.001,0 -132,0.5 -43.081,6.749 -69.914,31.249 -80.5,73.5 -0.994,4.618 -1.494,9.285 -1.5,14 -0.167,108.667 0,217.334 0.5,326 0.236,6.201 1.403,12.201 3.5,18 12.925,37.081 38.925,58.248 78,63.5 48,0.667 96,0.667 144,0 -40.589,-22.254 -73.089,-53.087 -97.5,-92.5 -19.883,-38.037 -22.883,-77.371 -9,-118 0.808,35.458 13.474,65.792 38,91 9.408,9.247 19.241,17.914 29.5,26 4.077,18.596 13.41,34.096 28,46.5 13.416,11.413 27.916,21.247 43.5,29.5 22.009,-11.019 41.342,-25.686 58,-44 8.244,-10.033 13.411,-21.366 15.5,-34 -0.131,0.739 0.036,1.406 0.5,2 25.785,-19.252 45.118,-43.586 58,-73 4.985,-14.924 7.651,-30.257 8,-46 18.991,58.694 7.658,110.694 -34,156 -20.613,22.632 -44.113,41.465 -70.5,56.5 50.025,0.962 100.025,0.629 150,-1 40.764,-9.429 65.264,-34.596 73.5,-75.5 0.5,-111.333 0.667,-222.666 0.5,-334 0.833,109.166 1.333,218.499 1.5,328 0.476,-114.28 0.642,-228.28 0.5,-342 -0.825,-0.886 -1.825,-1.219 -3,-1 0.254,-1.901 -0.08,-2.567 -1,-2 -16.824,-47.272 -50.491,-69.938 -101,-68 -2.681,-6.026 -5.348,-12.026 -8,-18 64.323,-4.6 106.656,23.4 127,84 0.39,3.339 0.89,6.673 1.5,10 0.667,115 0.667,230 0,345 -7.755,41.68 -31.255,70.514 -70.5,86.5 -8.775,2.963 -17.775,4.963 -27,6 -119,0.667 -238,0.667 -357,0 -41.487,-5.001 -71.487,-26.168 -90,-63.5 -3.756,-9.358 -6.423,-19.025 -8,-29 0.658,-1.293 0.992,-2.793 1,-4.5 -0.658,-111.324 -1.324,-222.491 -2,-333.5 4.247,-40.066 23.914,-69.9 59,-89.5 11.029,-5.676 22.695,-9.343 35,-11 52.332,-0.5 104.666,-0.667 157,-0.5 z"
       id="path3" />
  </g>
  <g
     id="g5"
     transform="translate(-234.38074,-356.59646)">
    <path
       style="opacity:1"
       fill="#f8d99e"
       d="m 643.5,410.5 c -16.667,0 -33.333,0 -50,0 1.125,-1.629 2.459,-3.129 4,-4.5 16.528,-9.756 31.861,-8.256 46,4.5 z"
       id="path5" />
  </g>
  <g
     id="g6"
     transform="translate(-234.38074,-356.59646)">
    <path
       style="opacity:1"
       fill="#fefdfc"
       d="m 252.5,498.5 c 0.833,106.833 1.333,213.833 1.5,321 0.356,7.304 1.523,14.471 3.5,21.5 -0.07,0.765 -0.403,1.265 -1,1.5 -2.097,-5.799 -3.264,-11.799 -3.5,-18 -0.5,-108.666 -0.667,-217.333 -0.5,-326 z"
       id="path6" />
  </g>
  <g
     id="g7"
     transform="translate(-234.38074,-356.59646)">
    <path
       style="opacity:1"
       fill="#f8daa0"
       d="m 641.5,612.5 c -4.628,7.779 -11.295,13.279 -20,16.5 -25.404,8.113 -50.404,6.947 -75,-3.5 9.332,-19.497 4.665,-34.664 -14,-45.5 -22.241,-10.857 -41.075,-6.691 -56.5,12.5 -6.155,11.132 -5.988,22.132 0.5,33 -19.049,6.952 -38.716,9.785 -59,8.5 -16.389,-1.854 -29.389,-9.354 -39,-22.5 4.328,-14.109 12.328,-25.942 24,-35.5 24.169,-17.395 51.169,-27.728 81,-31 43.193,-5.45 84.193,1.55 123,21 15.279,7.945 26.445,19.779 33.5,35.5 1.237,3.56 1.737,7.227 1.5,11 z"
       id="path7" />
  </g>
  <g
     id="g8"
     transform="translate(-234.38074,-356.59646)">
    <path
       style="opacity:1"
       fill="#f6d28b"
       d="m 770.5,495.5 c 0.064,-5.762 -0.603,-11.429 -2,-17 0.92,-0.567 1.254,0.099 1,2 1.175,-0.219 2.175,0.114 3,1 0.142,113.72 -0.024,227.72 -0.5,342 -0.167,-109.501 -0.667,-218.834 -1.5,-328 z"
       id="path8" />
  </g>
  <g
     id="g9"
     transform="translate(-234.38074,-356.59646)">
    <path
       style="opacity:1"
       fill="#603a27"
       d="m 449.5,577.5 c 10.717,-0.596 14.883,4.404 12.5,15 -2.897,4.655 -7.063,6.155 -12.5,4.5 -1.167,-1.167 -2.333,-2.333 -3.5,-3.5 -1.48,-6.049 -0.314,-11.382 3.5,-16 z"
       id="path9" />
  </g>
  <g
     id="g10"
     transform="translate(-234.38074,-356.59646)">
    <path
       style="opacity:1"
       fill="#5d3825"
       d="m 565.5,577.5 c 11.21,-0.264 15.043,5.07 11.5,16 -0.5,1.833 -1.667,3 -3.5,3.5 -11.171,1.486 -15.337,-3.347 -12.5,-14.5 1.059,-2.159 2.559,-3.826 4.5,-5 z"
       id="path10" />
  </g>
  <g
     id="g11"
     transform="translate(-234.38074,-356.59646)">
    <path
       style="opacity:1"
       fill="#d36331"
       d="m 546.5,625.5 c -3.908,5.402 -8.908,9.569 -15,12.5 -21.384,8.494 -39.718,4.327 -55,-12.5 -6.488,-10.868 -6.655,-21.868 -0.5,-33 15.425,-19.191 34.259,-23.357 56.5,-12.5 18.665,10.836 23.332,26.003 14,45.5 z"
       id="path11" />
  </g>
  <g
     id="g12"
     transform="translate(-234.38074,-356.59646)">
    <path
       style="opacity:1"
       fill="#f7d28a"
       d="m 234.5,493.5 c 0.676,111.009 1.342,222.176 2,333.5 -0.008,1.707 -0.342,3.207 -1,4.5 -0.99,-112.649 -1.323,-225.316 -1,-338 z"
       id="path12" />
  </g>
  <g
     id="g15"
     transform="translate(-234.38074,-356.59646)">
    <path
       style="opacity:1"
       fill="#fdf7ee"
       d="m 493.5,703.5 c 11.283,0.957 22.616,1.29 34,1 -4.805,3.775 -10.139,6.775 -16,9 -6.67,-2.33 -12.67,-5.664 -18,-10 z"
       id="path15" />
  </g>
  <g
     id="g53"
     transform="translate(-234.38074,-327.77922)"
     style="clip-rule:evenodd;display:inline;fill-rule:evenodd;image-rendering:optimizeQuality;shape-rendering:geometricPrecision;text-rendering:geometricPrecision">
    <rect
       style="clip-rule:evenodd;fill:#a49835;fill-opacity:1;fill-rule:evenodd;stroke-width:0.909457;image-rendering:optimizeQuality;shape-rendering:geometricPrecision;text-rendering:geometricPrecision"
       id="rect56"
       width="108.32198"
       height="16.466997"
       x="457.21652"
       y="785.27002" />
    <rect
       style="clip-rule:evenodd;fill:#a49835;fill-opacity:1;fill-rule:evenodd;stroke-width:0.909457;image-rendering:optimizeQuality;shape-rendering:geometricPrecision;text-rendering:geometricPrecision"
       id="rect55"
       width="108.32198"
       height="16.466997"
       x="457.21652"
       y="755.93817" />
    <rect
       style="clip-rule:evenodd;display:inline;fill:#a49835;fill-opacity:1;fill-rule:evenodd;stroke-width:0.822092;image-rendering:optimizeQuality;shape-rendering:geometricPrecision;text-rendering:geometricPrecision"
       id="rect54"
       width="88.510124"
       height="16.466997"
       x="467.50839"
       y="727.37823" />
    <rect
       style="display:inline;fill:#a49835;fill-opacity:1;stroke-width:0.822092"
       id="rect52"
       width="88.510124"
       height="16.466997"
       x="467.50839"
       y="659.96643" />
    <rect
       style="display:inline;fill:#a49835;fill-opacity:1"
       id="rect53"
       width="130.9641"
       height="16.466997"
       x="448.72571"
       y="630.89191" />
  </g>
  <g
     id="g14"
     style="clip-rule:evenodd;display:inline;fill-rule:evenodd;image-rendering:optimizeQuality;shape-rendering:geometricPrecision;text-rendering:geometricPrecision"
     transform="translate(-234.38074,-356.59646)">
    <path
       id="path64"
       style="opacity:1;fill:#d36331;fill-opacity:1"
       d="m 461.63672,802.67383 c -0.0604,-0.713 -0.1047,-1.43033 -0.13477,-2.15039 -0.0439,1.28761 -0.043,2.13281 -0.043,2.13281 0,0 0.0602,0.007 0.17774,0.0176 z" />
    <path
       id="path65"
       style="opacity:1;fill:#d36331;fill-opacity:1"
       d="m 549.69922,830.41211 c -0.12526,0.14165 -0.25126,0.28467 -0.37695,0.42578 0.0735,-0.003 0.11132,-0.004 0.11132,-0.004 0,0 0.0951,-0.15059 0.26563,-0.42187 z" />
    <path
       id="path67"
       style="opacity:1;fill:#d36331;fill-opacity:1"
       d="m 463.89062,813.75586 c -0.0463,0.002 -0.0703,0.004 -0.0703,0.004 0,0 0.0662,0.12553 0.18946,0.35742 -0.0406,-0.12047 -0.0795,-0.24064 -0.11915,-0.36133 z" />
    <path
       id="path66"
       style="opacity:1;fill:#d36331;fill-opacity:1"
       d="M 442.52539,642.4668 C 439.50598,642.4464 435.99725,643.124 432,644.5 c -1.147,26.234 8.353,47.734 28.5,64.5 8.193,6.359 16.526,12.526 25,18.5 -24.093,14.255 -39.593,34.921 -46.5,62 -0.541,7.682 -0.374,15.348 0.5,23 4.077,18.596 13.41,34.096 28,46.5 13.416,11.413 27.916,21.247 43.5,29.5 22.009,-11.019 41.342,-25.686 58,-44 8.244,-10.033 13.411,-21.366 15.5,-34 1.981,-27.199 -7.019,-50.032 -27,-68.5 -6.247,-5.414 -12.914,-10.247 -20,-14.5 15.854,-9.851 29.521,-22.185 41,-37 10.533,-14.425 13.866,-30.092 10,-47 -6.997,-2.214 -13.33,-0.88 -19,4 -1.931,19.201 -10.598,34.535 -26,46 -4.76,4.415 -10.094,8.081 -16,11 -4.805,3.775 -10.139,6.775 -16,9 -6.67,-2.33 -12.67,-5.664 -18,-10 -6.057,-3.029 -11.391,-7.029 -16,-12 -6.692,-4.36 -12.026,-10.026 -16,-17 -2.475,-3.962 -4.142,-8.295 -5,-13 -0.25875,-12.62775 -4.91639,-18.97213 -13.97461,-19.0332 z M 511.5,740.5 c 9.04709,4.0178 17.17259,9.16645 24.37305,15.44727 0.10098,0.008 0.15234,0.0117 0.15234,0.0117 0,0 14.41565,12.64618 17.32422,17.07227 0.1474,0.2243 0.2323,0.43914 0.25781,0.64258 2.47054,3.17813 4.06136,6.87156 4.77539,11.08203 2.18664,7.60632 3.45472,11.90906 2.21094,18.16211 -0.0896,3.64641 -0.7986,7.12386 -2.12891,10.43164 0.13276,0.1109 0.18576,0.22811 0.15625,0.35351 -0.8035,3.41492 -6.20161,12.33169 -8.32812,15.75977 0.0693,0.0123 0.13777,0.0246 0.20703,0.0371 -0.26596,0.30555 -0.53281,0.60905 -0.80078,0.91211 -0.17048,0.27128 -0.26563,0.42187 -0.26563,0.42187 0,0 -0.0378,10e-4 -0.11132,0.004 C 538.3804,843.12175 525.77325,853.3422 511.5,861.5 c -12.775,-6.937 -24.275,-15.604 -34.5,-26 -1.07134,-1.36765 -2.04964,-2.7727 -2.93359,-4.21484 -0.11457,-0.0457 -0.19345,-0.0941 -0.23829,-0.14454 -1.58678,-1.78513 -6.91371,-11.5982 -9.08007,-15.64062 H 464.5 c -0.17026,-0.45921 -0.33426,-0.92029 -0.49023,-1.38281 -0.12327,-0.23189 -0.18946,-0.35742 -0.18946,-0.35742 0,0 0.024,-0.002 0.0703,-0.004 -1.18086,-3.59398 -1.93242,-7.28784 -2.2539,-11.08203 -0.11757,-0.0105 -0.17774,-0.0176 -0.17774,-0.0176 0,0 -9.8e-4,-0.8452 0.043,-2.13281 -3.2e-4,-0.008 -0.002,-0.0156 -0.002,-0.0234 10e-4,-2e-5 0.003,2e-5 0.004,0 0.11876,-3.4464 0.66592,-10.63393 3.21875,-17.92773 0.12076,-0.34503 0.34316,-0.66998 0.6582,-0.97461 0.81879,-2.66466 2.04934,-5.09957 3.69336,-7.30469 -0.055,-0.005 -0.084,-0.006 -0.084,-0.006 0,0 7.53195,-11.04634 16.57032,-18.07617 0.26716,-0.2078 0.66225,-0.39369 1.16797,-0.5586 7.50678,-6.06328 15.76357,-11.1146 24.77143,-15.15213 z" />
  </g>
</svg>
